<?xml version="1.0" encoding="UTF-8" standalone="no"?>
<!-- Created with Inkscape (http://www.inkscape.org/) -->

<svg
   xmlns:dc="http://purl.org/dc/elements/1.1/"
   xmlns:cc="http://creativecommons.org/ns#"
   xmlns:rdf="http://www.w3.org/1999/02/22-rdf-syntax-ns#"
   xmlns:svg="http://www.w3.org/2000/svg"
   xmlns="http://www.w3.org/2000/svg"
   xmlns:xlink="http://www.w3.org/1999/xlink"
   xmlns:sodipodi="http://sodipodi.sourceforge.net/DTD/sodipodi-0.dtd"
   xmlns:inkscape="http://www.inkscape.org/namespaces/inkscape"
   width="230.3125"
   height="155.40625"
   id="svg2"
   sodipodi:version="0.32"
   inkscape:version="0.92.5 (2060ec1f9f, 2020-04-08)"
   sodipodi:docname="logoCovid.svg"
   inkscape:output_extension="org.inkscape.output.svg.inkscape"
   sodipodi:modified="true"
   version="1.0">
  <defs
     id="defs4">
    <radialGradient
       gradientUnits="userSpaceOnUse"
       fy="414.22442"
       fx="404.55407"
       gradientTransform="scale(0.828791,1.2065768)"
       id="grad1"
       cx="404.55407"
       cy="414.22442"
       r="49.670189">
      <stop
         offset="0%"
         stop-color="#00ff00"
         stop-opacity="1.0000"
         id="stop106" />
      <stop
         offset="100%"
         stop-color="#009933"
         stop-opacity="1.0000"
         id="stop108" />
    </radialGradient>
    <radialGradient
       gradientUnits="userSpaceOnUse"
       fy="68.724486"
       fx="462.98947"
       gradientTransform="scale(1.0208523,0.97957366)"
       id="grad2"
       cx="462.98947"
       cy="68.724486"
       r="37.736207">
      <stop
         offset="0%"
         stop-color="#00ff00"
         stop-opacity="1.0000"
         id="stop121" />
      <stop
         offset="100%"
         stop-color="#009933"
         stop-opacity="1.0000"
         id="stop123" />
    </radialGradient>
    <linearGradient
       xlink:href="#grad3"
       id="grad4"
       x1="299.32264"
       y1="388.2055"
       x2="299.32264"
       y2="427.05164"
       gradientTransform="scale(0.83405895,1.198956)"
       gradientUnits="userSpaceOnUse" />
    <linearGradient
       id="grad3">
      <stop
         offset="0%"
         stop-color="#009933"
         stop-opacity="1.0000"
         id="stop137" />
      <stop
         offset="100%"
         stop-color="#00ff00"
         stop-opacity="1.0000"
         id="stop139" />
    </linearGradient>
    <linearGradient
       xlink:href="#grad3"
       id="grad6"
       x1="129.06489"
       y1="846.09408"
       x2="129.06489"
       y2="883.61345"
       gradientTransform="scale(1.6724983,0.59790793)"
       gradientUnits="userSpaceOnUse" />
    <linearGradient
       xlink:href="#grad3"
       id="grad8"
       x1="61.975233"
       y1="113.43512"
       x2="61.975233"
       y2="151.76401"
       gradientTransform="scale(1.5451096,0.6472033)"
       gradientUnits="userSpaceOnUse" />
    <linearGradient
       xlink:href="#grad3"
       id="grad10"
       x1="94.431824"
       y1="35.988749"
       x2="94.431824"
       y2="76.737054"
       gradientTransform="scale(1.0078333,0.99222756)"
       gradientUnits="userSpaceOnUse" />
    <radialGradient
       id="radialGradient4125"
       cx="0.5"
       cy="0.5"
       r="1">
      <stop
         offset="0%"
         stop-color="#00ff00"
         stop-opacity="1.0000"
         id="stop4121" />
      <stop
         offset="100%"
         stop-color="#009933"
         stop-opacity="1.0000"
         id="stop4123" />
    </radialGradient>
    <radialGradient
       id="radialGradient4137"
       cx="0.5"
       cy="0.5"
       r="1">
      <stop
         offset="0%"
         stop-color="#00ff00"
         stop-opacity="1.0000"
         id="stop4133" />
      <stop
         offset="100%"
         stop-color="#009933"
         stop-opacity="1.0000"
         id="stop4135" />
    </radialGradient>
    <linearGradient
       xlink:href="#grad3"
       id="linearGradient4151"
       x1="0"
       y1="0"
       x2="0"
       y2="1"
       gradientTransform="rotate(177,0.5,0.5)"
       gradientUnits="objectBoundingBox" />
  </defs>
  <sodipodi:namedview
     id="base"
     pagecolor="#ffffff"
     bordercolor="#666666"
     borderopacity="1.0"
     gridtolerance="10000"
     guidetolerance="10"
     objecttolerance="10"
     inkscape:pageopacity="0.0"
     inkscape:pageshadow="2"
     inkscape:zoom="1.979899"
     inkscape:cx="149.00015"
     inkscape:cy="6.963848"
     inkscape:document-units="px"
     inkscape:current-layer="layer1"
     inkscape:window-width="1920"
     inkscape:window-height="996"
     inkscape:window-x="0"
     inkscape:window-y="0"
     showgrid="false"
     inkscape:snap-text-baseline="false"
     inkscape:window-maximized="1" />
  <metadata
     id="metadata7">
    <rdf:RDF>
      <cc:Work
         rdf:about="">
        <dc:format>image/svg+xml</dc:format>
        <dc:type
           rdf:resource="http://purl.org/dc/dcmitype/StillImage" />
        <dc:title></dc:title>
        <dc:date>07 12 2006</dc:date>
        <dc:creator>
          <cc:Agent>
            <dc:title>molumen, Rick van der Zwet</dc:title>
          </cc:Agent>
        </dc:creator>
        <cc:license
           rdf:resource="http://web.resource.org/cc/PublicDomain" />
        <dc:subject>
          <rdf:Bag>
            <rdf:li>phone</rdf:li>
            <rdf:li>line_art</rdf:li>
            <rdf:li>icon</rdf:li>
            <rdf:li>black</rdf:li>
            <rdf:li>white</rdf:li>
            <rdf:li>silhouette</rdf:li>
            <rdf:li>number</rdf:li>
            <rdf:li>compose</rdf:li>
            <rdf:li>allo</rdf:li>
            <rdf:li>moshi-moshi</rdf:li>
            <rdf:li>ring</rdf:li>
          </rdf:Bag>
        </dc:subject>
        <dc:description>phone icon</dc:description>
      </cc:Work>
      <cc:License
         rdf:about="http://web.resource.org/cc/PublicDomain">
        <cc:permits
           rdf:resource="http://web.resource.org/cc/Reproduction" />
        <cc:permits
           rdf:resource="http://web.resource.org/cc/Distribution" />
        <cc:permits
           rdf:resource="http://web.resource.org/cc/DerivativeWorks" />
      </cc:License>
    </rdf:RDF>
  </metadata>
  <g
     inkscape:label="Layer 1"
     inkscape:groupmode="layer"
     id="layer1"
     transform="translate(-16.921105,-20.658177)">
    <rect
       style="fill:#f4d7d7;stroke-width:1.18859088"
       id="rect4453"
       width="230.31183"
       height="47.451401"
       x="16.873119"
       y="75.139397"
       transform="matrix(0.99999983,-5.8565037e-4,5.0055774e-4,0.99999987,0,0)" />
    <g
       transform="matrix(0.1215398,0,0,0.09019683,29.604311,71.692406)"
       id="Layer1000">
      <path
         inkscape:connector-curvature="0"
         d="m 483.0756,74.253 c 115.0442,121.0125 161.9336,381.254 -190.691,441.6622 m 1.3946,-0.4574 c -22.1396,14.5533 -44.2794,29.1072 -66.4191,43.6605"
         style="fill:#ffffff;fill-rule:evenodd;stroke:#1b1918;stroke-width:14.17319965;stroke-linecap:butt;stroke-linejoin:miter;stroke-dasharray:none"
         id="path104" />
      <g
         id="Layer1001">
        <defs
           id="defs111">
          <radialGradient
             id="radialGradient4301"
             cx="0.5"
             cy="0.5"
             r="1">
            <stop
               offset="0%"
               stop-color="#00ff00"
               stop-opacity="1.0000"
               id="stop4297" />
            <stop
               offset="100%"
               stop-color="#009933"
               stop-opacity="1.0000"
               id="stop4299" />
          </radialGradient>
        </defs>
        <path
           inkscape:connector-curvature="0"
           d="m 338.8002,470.0151 c -11.5899,14.0423 -16.6691,25.8135 -15.2481,35.317 8.3366,2.2422 19.4804,-3.3293 20.4165,-3.4523 1.4691,-0.193 -12.9481,3.9663 -18.7853,8.8811 3.9461,8.4355 14.155,14.6863 30.6307,18.7508 -48.0406,-7.0807 -53.7198,-26.9157 -17.0138,-59.4966 z"
           style="fill:url(#grad1);stroke:#1b1918;stroke-width:0.5;stroke-linecap:butt;stroke-linejoin:miter;stroke-dasharray:none"
           id="path113" />
        <path
           inkscape:connector-curvature="0"
           d="m 331.8478,479.3258 c 16.2689,0.5228 15.4575,6.3427 17.6467,8.7341 2.1893,2.3913 7.3791,1.3541 10.7951,3.7025 3.4161,2.3484 5.0585,8.0824 3.7791,11.8496 -1.2794,3.7672 -5.4805,5.5675 -6.7262,8.4683 -1.2458,2.9007 0.4638,6.9018 -9.3748,15.1734"
           style="fill:none;stroke:#1b1918;stroke-width:0.5;stroke-linecap:butt;stroke-linejoin:miter;stroke-dasharray:none"
           id="path115" />
        <path
           inkscape:connector-curvature="0"
           d="m 345.1347,481.7015 c -2.441,-2.0272 -7.8639,-2.2015 -13.2866,-2.3755 -6.6271,10.0158 -9.3908,18.684 -8.296,26.0061 8.3366,2.2422 19.4804,-3.3293 20.4165,-3.4523 1.4691,-0.193 -12.9481,3.9663 -18.7853,8.8811 3.2765,7.004 10.8705,12.5018 22.7844,16.4928 3.2796,-2.7572 6.5591,-5.5143 7.629,-8.2266 1.0699,-2.7124 -0.0699,-5.3798 1.4608,-7.6136 1.5308,-2.2339 5.7318,-4.0344 7.0112,-7.8015 1.2794,-3.7672 -0.363,-9.5012 -3.7791,-11.8496 -3.4161,-2.3484 -8.6058,-1.3111 -10.9302,-2.7325 -2.3245,-1.4214 -1.7836,-5.3013 -4.2247,-7.3284 z"
           style="fill:#ffffff;fill-rule:evenodd"
           id="path117" />
      </g>
      <g
         id="Layer1002" />
      <g
         id="Layer1003">
        <defs
           id="defs126">
          <radialGradient
             id="radialGradient4313"
             cx="0.5"
             cy="0.5"
             r="1">
            <stop
               offset="0%"
               stop-color="#00ff00"
               stop-opacity="1.0000"
               id="stop4309" />
            <stop
               offset="100%"
               stop-color="#009933"
               stop-opacity="1.0000"
               id="stop4311" />
          </radialGradient>
        </defs>
        <path
           inkscape:connector-curvature="0"
           d="m 453.4747,79.8164 c 13.2123,3.0194 22.7431,2.4869 28.5984,-1.5919 -1.2841,-6.2498 -8.7069,-11.7731 -9.1006,-12.3511 -0.618,-0.9071 6.9549,7.246 12.1724,9.4795 4.3028,-5.3946 5.0643,-14.206 2.2823,-26.4363 11.2891,34.0854 -0.0276,44.3916 -33.9525,30.8998 z"
           style="fill:url(#grad2);stroke:#1b1918;stroke-width:0.5;stroke-linecap:butt;stroke-linejoin:miter;stroke-dasharray:none"
           id="path128" />
        <path
           inkscape:connector-curvature="0"
           d="m 461.9911,81.3346 c -5.0717,-10.9235 -0.9258,-12.3102 -0.0626,-14.5469 0.8631,-2.2368 -1.5565,-5.3236 -1.1307,-8.3569 0.4258,-3.0333 3.6971,-6.013 6.632,-6.4122 2.9349,-0.3992 5.5334,1.7822 7.8801,1.647 2.3467,-0.1351 4.4416,-2.5868 13.2276,1.1819"
           style="fill:none;stroke:#1b1918;stroke-width:0.5;stroke-linecap:butt;stroke-linejoin:miter;stroke-dasharray:none"
           id="path130" />
        <path
           inkscape:connector-curvature="0"
           d="m 459.1467,71.7694 c -0.5368,2.2829 1.1538,5.924 2.8444,9.5649 8.8776,1.0702 15.5707,0.0327 20.082,-3.1098 -1.2841,-6.2498 -8.7069,-11.7731 -9.1006,-12.3511 -0.618,-0.9071 6.9549,7.246 12.1724,9.4795 3.5726,-4.4792 4.7039,-11.3139 3.3926,-20.5054 -2.9287,-1.2562 -5.8573,-2.5125 -8.0199,-2.3234 -2.1627,0.1891 -3.5593,1.8236 -5.5568,1.5501 -1.9976,-0.2735 -4.5961,-2.4548 -7.531,-2.0556 -2.9349,0.3992 -6.2062,3.3789 -6.632,6.4122 -0.4258,3.0333 1.9938,6.1201 1.8216,8.1257 -0.1721,2.0057 -2.936,2.9301 -3.4727,5.2129 z"
           style="fill:#ffffff;fill-rule:evenodd"
           id="path132" />
      </g>
      <path
         inkscape:connector-curvature="0"
         d="M 102.054,74.4755 C -12.9902,195.488 -59.8796,455.7295 292.745,516.1377 m -0.3604,-0.2225 c 20.8337,14.4527 41.6674,28.9054 62.5011,43.358"
         style="fill:#ffffff;fill-rule:evenodd;stroke:#1b1918;stroke-width:14.17319965;stroke-linecap:butt;stroke-linejoin:miter;stroke-dasharray:none"
         id="path135" />
      <g
         id="Layer1004">
        <defs
           id="defs143">
          <linearGradient
             id="linearGradient4284">
            <stop
               offset="0%"
               stop-color="#009933"
               stop-opacity="1.0000"
               id="stop4145" />
            <stop
               offset="100%"
               stop-color="#00ff00"
               stop-opacity="1.0000"
               id="stop4147" />
          </linearGradient>
          <linearGradient
             xlink:href="#grad3"
             id="linearGradient4324"
             x1="0"
             y1="0"
             x2="0"
             y2="1"
             gradientTransform="rotate(177,0.5,0.5)"
             gradientUnits="objectBoundingBox" />
        </defs>
        <path
           inkscape:connector-curvature="0"
           d="m 250.2544,465.7748 c -2.3323,22.697 6.9296,38.0052 27.7855,45.9245 9.7785,-21.412 0.5167,-36.7202 -27.7855,-45.9245 z"
           style="fill:url(#grad4);stroke:#1b1918;stroke-width:0.5;stroke-linecap:butt;stroke-linejoin:miter;stroke-dasharray:none"
           id="path145" />
        <defs
           id="defs153">
          <linearGradient
             id="linearGradient4288">
            <stop
               offset="0%"
               stop-color="#009933"
               stop-opacity="1.0000"
               id="stop4155" />
            <stop
               offset="100%"
               stop-color="#00ff00"
               stop-opacity="1.0000"
               id="stop4157" />
          </linearGradient>
          <linearGradient
             xlink:href="#grad3"
             id="linearGradient4290"
             x1="0"
             y1="0"
             x2="0"
             y2="1"
             gradientTransform="rotate(177,0.5,0.5)"
             gradientUnits="objectBoundingBox" />
        </defs>
        <path
           inkscape:connector-curvature="0"
           d="m 216.3412,519.4428 c 21.3487,-14.6032 41.9726,-17.1915 61.8714,-7.7647 -15.7861,18.8551 -36.4099,21.4433 -61.8714,7.7647 z"
           style="fill:url(#grad6);stroke:#1b1918;stroke-width:0.5;stroke-linecap:butt;stroke-linejoin:miter;stroke-dasharray:none"
           id="path155" />
      </g>
      <g
         id="Layer1005" />
      <g
         id="Layer1006">
        <defs
           id="defs165">
          <linearGradient
             id="linearGradient4292">
            <stop
               offset="0%"
               stop-color="#009933"
               stop-opacity="1.0000"
               id="stop4167" />
            <stop
               offset="100%"
               stop-color="#00ff00"
               stop-opacity="1.0000"
               id="stop4169" />
          </linearGradient>
          <linearGradient
             xlink:href="#grad3"
             id="linearGradient4294"
             x1="0"
             y1="0"
             x2="0"
             y2="1"
             gradientTransform="rotate(177,0.5,0.5)"
             gradientUnits="objectBoundingBox" />
        </defs>
        <path
           inkscape:connector-curvature="0"
           d="M 154.5243,94.0162 C 137.6764,76.1127 118.2072,70.0201 96.1167,75.7384 c 10.2244,21.0742 29.6936,27.1668 58.4076,18.2778 z"
           style="fill:url(#grad8);stroke:#1b1918;stroke-width:0.5;stroke-linecap:butt;stroke-linejoin:miter;stroke-dasharray:none"
           id="path167" />
        <defs
           id="defs175">
          <linearGradient
             id="RESERVED_FOR_INKSCAPE_DUPLICATE_DEF_000000000">
            <stop
               offset="0%"
               stop-color="#009933"
               stop-opacity="1.0000"
               id="stop4177" />
            <stop
               offset="100%"
               stop-color="#00ff00"
               stop-opacity="1.0000"
               id="stop4179" />
          </linearGradient>
          <linearGradient
             xlink:href="#grad3"
             id="RESERVED_FOR_INKSCAPE_DUPLICATE_DEF_000000001"
             x1="0"
             y1="0"
             x2="0"
             y2="1"
             gradientTransform="rotate(177,0.5,0.5)"
             gradientUnits="objectBoundingBox" />
        </defs>
        <path
           inkscape:connector-curvature="0"
           d="m 135.9328,36.0022 c -4.0094,22.4784 -17.3187,35.7608 -39.928,39.8471 -3.6353,-22.5195 9.674,-35.8019 39.928,-39.8471 z"
           style="fill:url(#grad10);stroke:#1b1918;stroke-width:0.5;stroke-linecap:butt;stroke-linejoin:miter;stroke-dasharray:none"
           id="path177" />
      </g>
    </g>
    <g
       id="layer1-3"
       inkscape:label="Layer 1"
       transform="matrix(0.12380014,0,0,0.15666077,49.562309,80.095397)">
      <path
         id="path2198"
         d="m 132.07736,26.792695 c -33.676626,0 -64.326579,11.28995 -87.183319,29.732705 -10.999533,3.587654 -18.881563,13.228543 -18.881563,24.551788 0,4.183869 1.081554,8.123798 2.993418,11.62828 h 50.744201 c 1.911864,-3.504482 3.022201,-7.444401 3.022201,-11.62828 0,-6.512564 -2.599125,-12.4713 -6.907889,-17.039459 16.695797,-8.643362 35.855011,-13.556732 56.212951,-13.556732 20.35794,9e-6 39.51715,4.913379 56.21295,13.556732 -4.30877,4.56815 -6.90789,10.526895 -6.90789,17.039459 1e-5,4.183869 1.08155,8.123798 2.99342,11.62828 h 50.7442 c 1.91187,-3.504482 3.0222,-7.444401 3.0222,-11.62828 1e-5,-11.323245 -7.88203,-20.964144 -18.88157,-24.551788 C 196.40394,38.082645 165.75399,26.792695 132.07736,26.792695 Z m 0,26.365109 c -26.83468,0 -48.614264,23.030764 -48.614273,51.406206 0,2.37393 0.165449,4.7055 0.460526,6.99424 -4.727925,2.72872 -7.915289,7.82789 -7.915289,13.70065 v 28.84043 c 0,8.76254 7.068032,15.83059 15.830578,15.83058 h 80.476908 c 8.76254,0 15.83058,-7.06802 15.83058,-15.83058 V 125.2589 c 0,-5.86755 -3.1943,-10.94136 -7.91529,-13.67187 0.29766,-2.29844 0.46053,-4.63857 0.46053,-7.02302 0,-28.375424 -21.77959,-51.406233 -48.61427,-51.406206 z m 0,15.34127 c 13.99512,9e-6 25.35771,10.518864 25.35771,23.486822 1e-5,12.967974 -11.36259,23.515604 -25.35771,23.515604 -13.99513,2e-5 -25.35771,-10.54764 -25.35771,-23.515604 1e-5,-12.96794 11.36259,-23.486822 25.35771,-23.486822 z"
         style="opacity:1;fill:#2e3436;fill-opacity:1;stroke:none;stroke-width:1;stroke-linecap:square;stroke-linejoin:round;stroke-miterlimit:4;stroke-dasharray:none;stroke-dashoffset:0;stroke-opacity:1"
         inkscape:connector-curvature="0" />
    </g>
    <text
       xml:space="preserve"
       style="font-style:normal;font-weight:normal;font-size:19.52560425px;line-height:1.25;font-family:sans-serif;letter-spacing:0px;word-spacing:0px;fill:#000000;fill-opacity:1;stroke:none;stroke-width:0.48814011"
       x="121.54749"
       y="93.458992"
       id="text4443"
       transform="scale(0.87248229,1.1461551)"><tspan
         sodipodi:role="line"
         id="tspan4441"
         x="121.54749"
         y="93.458992"
         style="stroke-width:0.48814011">Resultat Covid</tspan></text>
    <path
       style="fill:#f4d7d7;fill-opacity:1;stroke-width:0.50507629"
       d="m 53.656914,97.860407 c -0.762611,-0.443064 -0.81124,-0.633133 -0.252538,-0.98706 0.544144,-0.344704 0.503145,-0.439984 -0.19194,-0.446066 -1.25614,-0.01099 -1.097244,-1.476588 0.212621,-1.961138 0.734665,-0.27177 0.899492,-0.527385 0.499487,-0.774602 -0.349172,-0.2158 -1.239859,0.273863 -2.14551,1.179514 -1.419716,1.419717 -2.48094,1.962968 -2.48094,1.270019 0,-0.153161 3.201304,-5.778448 7.114008,-12.500638 3.912704,-6.722191 8.733139,-15.006398 10.712078,-18.409349 1.978939,-3.402952 3.820981,-6.187185 4.093428,-6.187185 1.084761,0 5.519034,5.517022 7.264791,9.038689 1.635523,3.299295 1.853231,4.183783 1.864794,7.576144 0.01134,3.326063 -0.18742,4.202756 -1.483174,6.542079 -2.937162,5.302683 -8.92222,9.258459 -17.94917,11.863363 -3.025245,0.872994 -4.591479,1.101102 -5.303301,0.772379 -0.838653,-0.387294 -0.820613,-0.327188 0.106254,0.354027 1.047689,0.770013 1.06743,0.895269 0.320719,2.034894 -0.893958,1.364352 -1.053088,1.406776 -2.381607,0.63493 z"
       id="path4507"
       inkscape:connector-curvature="0"
       transform="translate(16.921105,20.658177)" />
    <path
       style="fill:#f4d7d7;fill-opacity:1;stroke-width:0.50507629"
       d="M 39.954184,95.314797 C 35.326756,94.180397 29.660512,92.1915 26.822201,90.705366 22.408357,88.394287 17.866354,83.713744 16.738534,80.314127 c -1.918577,-5.783212 0.07427,-12.477955 5.50808,-18.503797 2.42033,-2.684031 2.80649,-2.934913 3.480698,-2.261351 0.675761,0.675113 3.805023,5.947521 16.437661,27.695363 l 3.618591,6.229622 -1.600161,-0.351455 c -1.571986,-0.345266 -1.594626,-0.323781 -1.285819,1.220254 0.347521,1.737604 0.275936,1.761245 -2.9434,0.972034 z"
       id="path4509"
       inkscape:connector-curvature="0"
       transform="translate(16.921105,20.658177)" />
  </g>
</svg>
